<?xml version="1.0" standalone="no"?>
<!DOCTYPE svg PUBLIC "-//W3C//DTD SVG 20010904//EN"
 "http://www.w3.org/TR/2001/REC-SVG-20010904/DTD/svg10.dtd">
<svg version="1.0" xmlns="http://www.w3.org/2000/svg"
 width="300.000000pt" height="300.000000pt" viewBox="0 0 300.000000 300.000000"
 preserveAspectRatio="xMidYMid meet">
<metadata>
Created by potrace 1.14, written by Peter Selinger 2001-2017
</metadata>
<g transform="translate(0.000000,300.000000) scale(0.100000,-0.100000)"
fill="#000000" stroke="none">
<path d="M970 2600 c-4 -3 -22 -32 -41 -65 -18 -33 -36 -62 -39 -65 -3 -3 -11
-16 -17 -30 -12 -25 -27 -51 -123 -215 -63 -107 -86 -148 -112 -195 -11 -19
-28 -48 -38 -65 -10 -16 -27 -46 -38 -65 -51 -93 -215 -376 -223 -386 -9 -11
47 -119 129 -252 12 -20 25 -44 29 -52 4 -8 24 -43 45 -78 21 -34 38 -65 38
-68 0 -2 8 -17 19 -32 21 -30 158 -266 204 -351 16 -31 38 -68 49 -83 10 -14
18 -28 18 -31 0 -5 89 -158 96 -167 7 -7 1253 -6 1272 1 10 4 24 20 32 35 15
29 82 145 100 174 5 8 21 36 35 62 13 26 49 88 80 139 30 50 55 93 55 95 0 2
14 27 32 56 17 29 46 80 63 113 l33 60 -140 240 c-77 132 -152 263 -167 290
-16 28 -47 82 -70 121 -22 39 -41 75 -41 81 0 5 31 63 69 129 110 187 131 227
131 241 0 7 -18 43 -40 79 -22 36 -40 67 -40 69 0 2 -23 41 -50 88 -28 47 -50
88 -50 92 0 3 -7 14 -16 23 -15 15 -77 16 -646 17 -347 0 -633 -2 -638 -5z
m285 -363 c18 0 40 3 50 7 10 3 23 2 29 -3 7 -6 17 -6 26 -1 9 5 19 5 27 -1 8
-7 18 -7 32 1 15 7 21 7 21 0 0 -7 6 -7 21 0 14 8 24 8 32 1 8 -6 18 -6 27 -1
9 5 19 5 27 -1 8 -7 18 -7 32 1 15 7 21 7 21 0 0 -7 6 -7 21 0 14 8 24 8 32 1
8 -6 18 -6 27 -1 9 5 19 5 27 -1 8 -7 18 -7 32 1 15 7 21 7 21 0 0 -7 6 -7 21
0 14 8 24 8 32 1 8 -6 18 -6 27 -1 9 5 19 5 26 -1 6 -5 20 -6 30 -2 10 4 34 6
54 5 19 -2 43 -3 52 -3 14 0 12 -8 -13 -50 -16 -27 -29 -54 -29 -59 0 -6 -5
-10 -11 -10 -5 0 -8 -4 -5 -9 3 -4 -3 -16 -14 -26 -11 -10 -17 -21 -15 -25 3
-4 -2 -13 -10 -20 -8 -7 -12 -16 -9 -21 3 -5 1 -9 -4 -9 -5 0 -15 -13 -22 -30
-7 -16 -17 -27 -23 -23 -6 3 -7 1 -3 -6 4 -6 2 -18 -4 -26 -7 -8 -9 -15 -4
-15 5 0 1 -5 -8 -11 -10 -5 -18 -15 -18 -20 0 -6 -9 -22 -20 -36 -11 -14 -17
-29 -14 -34 3 -5 1 -9 -4 -9 -4 0 -19 -20 -31 -45 -12 -24 -26 -47 -32 -50 -5
-4 -7 -11 -4 -16 4 -5 3 -9 -2 -9 -4 0 -19 -20 -32 -45 -13 -25 -28 -45 -32
-45 -5 0 -6 -7 -3 -15 4 -8 2 -15 -4 -15 -5 0 -12 -9 -15 -20 -8 -31 -22 -24
-47 25 -13 25 -27 45 -32 45 -5 0 -7 4 -3 9 3 5 1 12 -4 15 -5 4 -28 39 -50
79 -23 39 -51 90 -64 112 l-24 40 -197 5 c-140 4 -200 2 -207 -6 -11 -13 -2
-44 13 -44 5 0 7 -4 3 -9 -3 -5 2 -16 10 -24 8 -9 15 -20 15 -26 0 -6 5 -11
10 -11 6 0 9 -3 8 -7 -2 -7 31 -70 71 -133 8 -14 16 -32 18 -40 1 -8 10 -20
19 -27 10 -7 15 -13 11 -13 -4 0 10 -28 31 -62 21 -35 49 -84 62 -110 13 -27
27 -48 32 -48 4 0 8 -9 8 -20 0 -11 5 -20 11 -20 5 0 7 -5 4 -10 -3 -5 -1 -10
4 -10 6 0 11 -7 11 -15 0 -8 5 -15 10 -15 6 0 10 -7 10 -15 0 -8 5 -15 11 -15
5 0 8 -4 5 -9 -3 -5 2 -18 12 -30 16 -20 27 -21 224 -22 230 -1 220 -3 257 69
12 23 26 42 32 42 6 0 8 4 5 9 -3 5 4 20 15 35 11 14 17 26 12 26 -4 0 -3 4 4
8 6 4 13 14 15 22 2 8 11 23 21 34 9 11 17 26 17 33 0 7 5 13 10 13 6 0 10 7
10 15 0 8 4 15 10 15 5 0 9 5 7 11 -1 6 4 14 10 16 7 3 20 -12 30 -34 10 -21
25 -43 33 -50 8 -7 11 -13 7 -13 -5 0 1 -13 12 -29 12 -16 21 -34 21 -40 0 -6
5 -11 10 -11 6 0 10 -6 10 -14 0 -8 6 -21 13 -28 12 -13 33 -50 62 -106 10
-18 11 -28 4 -33 -6 -3 -10 -9 -10 -13 3 -17 -1 -25 -19 -46 -11 -12 -17 -27
-14 -31 3 -5 1 -9 -5 -9 -6 0 -18 -17 -28 -38 -9 -20 -22 -42 -29 -49 -6 -6
-17 -25 -24 -42 -7 -17 -17 -31 -23 -31 -6 0 -7 -3 -4 -7 4 -3 0 -15 -10 -25
-9 -10 -13 -18 -9 -18 4 0 -2 -9 -12 -20 -18 -20 -29 -20 -438 -18 l-419 3
-13 27 c-7 16 -18 28 -23 28 -6 0 -8 4 -5 9 3 5 -2 19 -12 32 -10 13 -26 41
-36 62 -9 20 -20 37 -24 37 -4 0 -13 12 -19 28 -15 32 -46 86 -62 105 -6 8 -8
17 -4 20 3 4 2 7 -4 7 -5 0 -21 21 -34 48 -13 26 -27 49 -31 52 -3 3 -8 12
-10 20 -2 8 -11 23 -20 34 -10 11 -18 26 -18 33 0 7 -5 13 -12 13 -6 0 -9 3
-5 6 3 3 2 11 -4 18 -21 25 -58 86 -52 86 3 0 -1 8 -10 18 -10 10 -14 22 -10
25 3 4 1 7 -5 7 -7 0 -12 7 -12 15 0 8 3 15 8 15 4 0 18 21 32 48 13 26 27 49
31 52 5 5 22 35 53 97 6 13 14 23 19 23 4 0 7 5 7 11 0 6 9 24 21 40 11 16 18
29 14 29 -3 0 3 10 14 22 11 11 18 25 15 30 -3 4 0 8 5 8 6 0 11 4 11 10 0 5
13 30 30 56 16 26 27 51 24 55 -3 5 0 9 6 9 6 0 15 11 20 25 5 14 14 25 20 25
5 0 9 3 8 8 -3 12 25 62 34 62 5 0 6 5 3 10 -3 6 0 13 9 16 8 3 13 11 10 18
-2 6 5 22 16 34 11 12 17 22 13 22 -4 0 -1 4 7 9 8 6 18 7 24 4 5 -4 24 -6 41
-6z"/>
</g>
</svg>
